#!OML:ASF F:\VICON\USERDATA\INSTALL\rory3\rory3.ASF
:FULLY-SPECIFIED
:DEGREES
899
root 5.53084 17.4292 1.61277 20.1559 3.1352 0.900402
lowerback -11.0456 -0.945555 10.3356
upperback -14.6871 -1.67022 0.968665
thorax -10.1557 -1.85831 -4.71536
lowerneck -4.0608 20.2094 10.6204
upperneck 8.21839 26.405 -0.222196
head 4.45846 13.333 0.0698331
rclavicle 4.27387e-014 1.43125e-014
rhumerus -7.91882 -30.4081 31.668
rradius 111.732
rwrist -64.0155
rhand -5.6697 -44.5787
rfingers 7.12502
rthumb 20.1498 -73.5537
lclavicle 4.27387e-014 1.43125e-014
lhumerus 22.804 24.956 -13.9082
lradius 32.4062
lwrist 54.3708
lhand -20.8779 -13.9099
lfingers 7.12502
lthumb 5.49219 15.999
rfemur -9.88918 10.6375 -8.50108
rtibia 8.83569
rfoot -13.9002 -22.8432
rtoes 39.0059
lfemur -18.8068 2.95337 -30.4125
ltibia 16.8683
lfoot -16.8147 1.24721
ltoes 8.9056
900
root 5.53633 17.4274 1.61594 20.1912 3.20956 0.851901
lowerback -11.2851 -0.92458 10.4978
upperback -14.6049 -1.68595 0.93882
thorax -9.93914 -1.87253 -4.84807
lowerneck -3.98793 20.206 10.6148
upperneck 8.13169 26.4078 -0.231283
head 4.42066 13.3338 0.0544435
rclavicle 4.01545e-014 -3.18055e-015
rhumerus -8.03655 -30.5108 31.7279
rradius 111.783
rwrist -63.9353
rhand -5.32659 -44.5496
rfingers 7.12502
rthumb 20.4796 -73.4895
lclavicle 4.01545e-014 -3.18055e-015
lhumerus 22.8027 25.0799 -13.9711
lradius 32.4089
lwrist 54.6238
lhand -20.8117 -13.8394
lfingers 7.12502
lthumb 5.55611 16.0678
rfemur -9.82085 10.5652 -8.4341
rtibia 8.78753
rfoot -13.9046 -22.8244
rtoes 38.9566
lfemur -18.8669 2.94532 -30.3726
ltibia 16.9758
lfoot -16.9018 1.21413
ltoes 9.1038
901
root 5.53997 17.4258 1.61658 20.1907 3.26172 0.726395
lowerback -11.6006 -0.870602 10.7076
upperback -14.3945 -1.67797 0.924261
thorax -9.52571 -1.86392 -4.99707
lowerneck -4.21442 20.1916 10.5642
upperneck 8.0867 26.3677 -0.285499
head 4.44015 13.3059 0.0622844
rclavicle 2.36554e-014 -3.57812e-014
rhumerus -8.21858 -30.7517 31.7497
rradius 111.759
rwrist -63.7395
rhand -4.98446 -44.5601
rfingers 7.12502
rthumb 20.8083 -73.4643
lclavicle 2.36554e-014 -3.57812e-014
lhumerus 23.0555 25.7697 -13.6238
lradius 32.2416
lwrist 54.159
lhand -21.1118 -13.8136
lfingers 7.12502
lthumb 5.26643 16.101
rfemur -9.76329 10.5524 -8.28635
rtibia 8.73124
rfoot -14.1359 -22.6862
rtoes 39.261
lfemur -18.9065 3.02633 -30.2592
ltibia 17.0553
lfoot -16.9605 1.15943
ltoes 8.94879
902
root 5.53639 17.4262 1.60748 20.1555 3.21884 0.678051
lowerback -11.2177 -0.91073 10.6843
upperback -14.6002 -1.66616 0.973035
thorax -9.98374 -1.88106 -4.91105
lowerneck -3.95118 20.1357 10.6818
upperneck 8.23033 26.3197 -0.272359
head 4.45649 13.2923 0.0334069
rclavicle -3.97569e-014 -2.8625e-014
rhumerus -7.93082 -30.5809 31.538
rradius 111.732
rwrist -63.6224
rhand -4.37067 -44.426
rfingers 7.12502
rthumb 21.398 -73.2644
lclavicle -3.97569e-014 -2.8625e-014
lhumerus 23.223 25.7119 -13.3711
lradius 32.1402
lwrist 53.7978
lhand -21.2668 -13.8254
lfingers 7.12502
lthumb 5.11677 16.0929
rfemur -9.79882 10.614 -8.23874
rtibia 8.72442
rfoot -14.5261 -22.4792
rtoes 39.8744
lfemur -18.9326 3.00905 -30.1939
ltibia 17.0936
lfoot -16.921 1.23399
ltoes 8.88576
903
root 5.53031 17.4268 1.5971 20.1555 3.1166 0.769214
lowerback -11.3034 -0.890586 10.525
upperback -14.4746 -1.65439 0.919574
thorax -9.76952 -1.84839 -4.88902
lowerneck -4.06761 20.1275 10.656
upperneck 8.16628 26.2985 -0.318431
head 4.45604 13.2763 0.0299609
rclavicle 1.17283e-014 1.43125e-014
rhumerus -8.12295 -30.712 31.5959
rradius 111.745
rwrist -63.5304
rhand -4.33438 -44.0484
rfingers 7.12502
rthumb 21.4328 -72.8828
lclavicle 1.17283e-014 1.43125e-014
lhumerus 23.4387 26.1765 -13.1419
lradius 32.0303
lwrist 53.5823
lhand -21.1788 -13.8382
lfingers 7.12502
lthumb 5.20175 16.0779
rfemur -9.8862 10.6659 -8.36637
rtibia 8.72063
rfoot -14.4758 -22.5622
rtoes 39.8767
lfemur -18.9818 2.88237 -30.2676
ltibia 17.1113
lfoot -16.8431 1.43004
ltoes 8.74042
904
root 5.52813 17.427 1.59821 20.1761 3.06881 0.808367
lowerback -11.2238 -0.897992 10.4615
upperback -14.557 -1.64726 0.908047
thorax -9.90744 -1.84869 -4.8611
lowerneck -4.04206 20.1207 10.641
upperneck 8.29453 26.2842 -0.194022
head 4.47335 13.2771 0.066936
rclavicle 3.24019e-014 -1.82882e-014
rhumerus -8.07365 -30.5429 31.6067
rradius 111.835
rwrist -63.5773
rhand -4.67188 -43.8502
rfingers 7.12502
rthumb 21.1086 -72.7212
lclavicle 3.24019e-014 -1.82882e-014
lhumerus 23.3436 25.829 -13.3434
lradius 32.1167
lwrist 53.9225
lhand -21.2543 -13.766
lfingers 7.12502
lthumb 5.12883 16.1519
rfemur -9.89486 10.6786 -8.42029
rtibia 8.66982
rfoot -13.9964 -22.8593
rtoes 39.2072
lfemur -19.0036 2.80914 -30.2996
ltibia 17.1196
lfoot -16.8269 1.53981
ltoes 8.59267
905
root 5.53232 17.4253 1.60815 20.1031 3.03408 0.777528
lowerback -11.3275 -0.87391 10.5433
upperback -14.4908 -1.63696 0.896931
thorax -9.77495 -1.84431 -4.92379
lowerneck -3.95889 20.1247 10.6347
upperneck 8.18174 26.2982 -0.204413
head 4.42627 13.283 0.0494788
rclavicle -4.65156e-014 -8.74653e-015
rhumerus -8.01081 -30.6512 31.517
rradius 111.77
rwrist -63.5829
rhand -4.64521 -43.964
rfingers 7.12502
rthumb 21.1343 -72.8321
lclavicle -4.65156e-014 -8.74653e-015
lhumerus 23.0816 25.3717 -13.7445
lradius 32.2839
lwrist 54.432
lhand -21.1793 -13.7532
lfingers 7.12502
lthumb 5.20125 16.163
rfemur -9.72206 10.7437 -8.39506
rtibia 8.54131
rfoot -13.5814 -23.0987
rtoes 38.5882
lfemur -18.8839 2.89602 -30.2929
ltibia 17.1387
lfoot -16.9224 1.51956
ltoes 8.64549
906
root 5.53845 17.4221 1.61791 19.9705 3.03525 0.699875
lowerback -11.3568 -0.839199 10.7162
upperback -14.4359 -1.6068 0.883935
thorax -9.70309 -1.84206 -5.03578
lowerneck -3.85349 20.126 10.5629
upperneck 8.06881 26.3103 -0.153092
head 4.35927 13.2898 0.0500335
rclavicle 2.00773e-014 7.95139e-016
rhumerus -7.92177 -30.6942 31.4158
rradius 111.691
rwrist -63.5974
rhand -4.8726 -44.1352
rfingers 7.12502
rthumb 20.9158 -73.0276
lclavicle 2.00773e-014 7.95139e-016
lhumerus 22.9958 25.1105 -13.8894
lradius 32.3539
lwrist 54.6127
lhand -20.9486 -13.8588
lfingers 7.12502
lthumb 5.42399 16.0518
rfemur -9.42181 10.8198 -8.30406
rtibia 8.32832
rfoot -14.3603 -22.719
rtoes 39.9238
lfemur -18.7118 3.03301 -30.2433
ltibia 17.1726
lfoot -17.0231 1.44762
ltoes 8.73315
907
root 5.53869 17.421 1.61805 20.0248 3.12186 0.657608
lowerback -11.4083 -0.835122 10.7647
upperback -14.4595 -1.60766 0.89034
thorax -9.70667 -1.84781 -5.05626
lowerneck -4.02871 20.1251 10.4486
upperneck 8.21127 26.2837 0.00267338
head 4.39443 13.2809 0.124035
rclavicle 1.19271e-015 -9.54166e-015
rhumerus -7.9821 -30.5773 31.5155
rradius 111.747
rwrist -63.6582
rhand -5.19696 -44.1502
rfingers 7.12502
rthumb 20.6042 -73.0767
lclavicle 1.19271e-015 -9.54166e-015
lhumerus 23.0895 25.1346 -13.7905
lradius 32.3125
lwrist 54.5798
lhand -20.8626 -14.0904
lfingers 7.12502
lthumb 5.50698 15.818
rfemur -9.28637 10.7281 -8.2328
rtibia 8.08248
rfoot -15.3586 -22.2002
rtoes 41.4674
lfemur -18.7924 3.04956 -30.1972
ltibia 17.1991
lfoot -17.0242 1.36812
ltoes 8.5494
908
root 5.53579 17.4216 1.61473 20.109 3.15688 0.709646
lowerback -11.4778 -0.853939 10.6598
upperback -14.4661 -1.63577 0.889537
thorax -9.67082 -1.84999 -5.00165
lowerneck -4.22776 20.1225 10.4034
upperneck 8.40247 26.2537 0.0992296
head 4.46516 13.2694 0.18346
rclavicle -2.38542e-014 2.94201e-014
rhumerus -8.06987 -30.5408 31.6021
rradius 111.81
rwrist -63.7393
rhand -5.36878 -44.0937
rfingers 7.12502
rthumb 20.4391 -73.038
lclavicle -2.38542e-014 2.94201e-014
lhumerus 23.0787 25.0792 -13.8361
lradius 32.3233
lwrist 54.8289
lhand -21.1093 -14.4397
lfingers 7.12502
lthumb 5.26885 15.4748
rfemur -9.28778 10.6384 -8.27592
rtibia 7.97301
rfoot -15.6077 -22.0842
rtoes 41.7656
lfemur -18.902 3.03245 -30.2467
ltibia 17.1996
lfoot -17.001 1.33495
ltoes 8.31599
909
root 5.53518 17.4218 1.61539 20.0683 3.14787 0.785991
lowerback -11.5368 -0.871472 10.5905
upperback -14.4051 -1.66894 0.858408
thorax -9.56551 -1.85473 -5.00204
lowerneck -4.15611 20.1085 10.416
upperneck 8.29716 26.2468 0.0329305
head 4.43127 13.2628 0.150312
rclavicle -7.55382e-015 -9.54166e-015
rhumerus -8.09178 -30.6108 31.559
rradius 111.8
rwrist -63.7626
rhand -5.24905 -44.1497
rfingers 7.12502
rthumb 20.5541 -73.0816
lclavicle -7.55382e-015 -9.54166e-015
lhumerus 22.9509 24.9382 -14.0296
lradius 32.4006
lwrist 55.2636
lhand -21.3539 -14.7056
lfingers 7.12502
lthumb 5.03262 15.2146
rfemur -9.32521 10.6372 -8.34097
rtibia 8.16457
rfoot -15.7223 -21.8965
rtoes 41.8852
lfemur -18.8202 3.06891 -30.3335
ltibia 17.1533
lfoot -17.005 1.28977
ltoes 8.3318
910
root 5.53186 17.4223 1.6125 20.0628 3.09791 0.869695
lowerback -11.5418 -0.883766 10.461
upperback -14.3958 -1.68166 0.834295
thorax -9.54322 -1.84861 -4.95768
lowerneck -4.0151 20.0989 10.4336
upperneck 8.15429 26.2524 -0.0259798
head 4.37514 13.2633 0.109786
rclavicle -4.87022e-014 -1.98785e-014
rhumerus -8.08256 -30.5737 31.5533
rradius 111.807
rwrist -63.7791
rhand -5.19257 -44.2113
rfingers 7.12502
rthumb 20.6084 -73.1373
lclavicle -4.87022e-014 -1.98785e-014
lhumerus 22.842 24.8197 -14.1735
lradius 32.4922
lwrist 55.6733
lhand -21.1369 -14.5271
lfingers 7.12502
lthumb 5.24214 15.3881
rfemur -9.52268 10.6497 -8.4438
rtibia 8.48741
rfoot -15.2325 -22.0536
rtoes 41.0821
lfemur -18.763 2.97183 -30.4086
ltibia 17.0627
lfoot -16.9337 1.43612
ltoes 8.37182
911
root 5.52406 17.424 1.60014 20.0631 2.98089 0.92137
lowerback -11.3397 -0.889968 10.2692
upperback -14.4616 -1.65162 0.843633
thorax -9.71338 -1.82374 -4.8326
lowerneck -3.9817 20.0932 10.4056
upperneck 8.21502 26.245 0.0481443
head 4.37547 13.264 0.130437
rclavicle 3.3197e-014 7.95139e-016
rhumerus -8.05822 -30.4441 31.6252
rradius 111.853
rwrist -63.942
rhand -5.46751 -44.2186
rfingers 7.12502
rthumb 20.3442 -73.173
lclavicle 3.3197e-014 7.95139e-016
lhumerus 22.9042 24.8184 -14.0823
lradius 32.4893
lwrist 55.7636
lhand -20.5297 -14.1899
lfingers 7.12502
lthumb 5.82839 15.7099
rfemur -9.80812 10.7219 -8.5569
rtibia 8.74644
rfoot -14.5992 -22.4376
rtoes 40.05
lfemur -18.7693 2.76125 -30.4266
ltibia 16.9696
lfoot -16.7915 1.76298
ltoes 8.34323
912
root 5.52042 17.425 1.59303 20.0387 2.93537 0.940053
lowerback -11.2254 -0.904022 10.1973
upperback -14.4618 -1.65317 0.849352
thorax -9.77199 -1.81942 -4.78324
lowerneck -3.97369 20.0992 10.323
upperneck 8.13543 26.2565 0.0678828
head 4.33671 13.2677 0.136657
rclavicle 2.38542e-015 -1.66979e-014
rhumerus -8.07536 -30.3893 31.6678
rradius 111.868
rwrist -64.0122
rhand -5.74679 -44.1584
rfingers 7.12502
rthumb 20.0757 -73.1412
lclavicle 2.38542e-015 -1.66979e-014
lhumerus 23.1238 25.1917 -13.754
lradius 32.3364
lwrist 55.3263
lhand -20.1508 -14.1651
lfingers 7.12502
lthumb 6.19427 15.7243
rfemur -10.0006 10.7563 -8.60317
rtibia 9.0087
rfoot -14.1071 -22.6882
rtoes 39.2617
lfemur -18.7352 2.69971 -30.4278
ltibia 16.8979
lfoot -16.6821 1.84041
ltoes 8.51044
913
root 5.52095 17.4254 1.59455 20.0278 2.95381 0.948272
lowerback -11.258 -0.926485 10.2146
upperback -14.4151 -1.69175 0.837907
thorax -9.70631 -1.83678 -4.80843
lowerneck -4.0875 20.1452 10.2865
upperneck 8.15551 26.304 0.103822
head 4.35275 13.2903 0.166432
rclavicle 3.20043e-014 -4.92986e-014
rhumerus -8.12367 -30.3963 31.6702
rradius 111.898
rwrist -64.1138
rhand -6.25935 -44.1529
rfingers 7.12502
rthumb 19.583 -73.1866
lclavicle 3.20043e-014 -4.92986e-014
lhumerus 23.332 25.7284 -13.4047
lradius 32.1757
lwrist 54.6558
lhand -20.172 -14.3111
lfingers 7.12502
lthumb 6.17374 15.5789
rfemur -10.0659 10.7376 -8.59805
rtibia 9.19378
rfoot -13.5771 -22.8557
rtoes 38.3944
lfemur -18.6884 2.73516 -30.4352
ltibia 16.8642
lfoot -16.6417 1.75741
ltoes 8.84667
